<svg width="16" height="16" viewBox="0 0 16 16" fill="none" xmlns="http://www.w3.org/2000/svg">
<path d="M3.33333 8.66667L10 8.66667L7.80667 10.86C7.74418 10.922 7.69459 10.9957 7.66074 11.077C7.62689 11.1582 7.60947 11.2453 7.60947 11.3333C7.60947 11.4213 7.62689 11.5085 7.66074 11.5897C7.69458 11.671 7.74418 11.7447 7.80667 11.8067C7.93157 11.9308 8.10054 12.0005 8.27667 12.0005C8.45279 12.0005 8.62176 11.9308 8.74667 11.8067L11.6067 8.94001C11.8571 8.69111 11.9985 8.35306 12 8.00001C11.9968 7.64927 11.8554 7.31394 11.6067 7.06667L8.74667 4.2C8.68451 4.13828 8.6108 4.08941 8.52975 4.05617C8.44871 4.02294 8.36191 4.00599 8.27431 4.0063C8.18671 4.00661 8.10004 4.02417 8.01923 4.05798C7.93842 4.09179 7.86506 4.14118 7.80333 4.20334C7.74161 4.2655 7.69274 4.33921 7.6595 4.42025C7.62627 4.5013 7.60932 4.5881 7.60963 4.6757C7.60994 4.76329 7.6275 4.84997 7.66131 4.93078C7.69511 5.01159 7.74451 5.08495 7.80667 5.14667L10 7.33334L3.33333 7.33334C3.15652 7.33334 2.98695 7.40358 2.86193 7.5286C2.7369 7.65362 2.66667 7.82319 2.66667 8C2.66667 8.17682 2.7369 8.34638 2.86193 8.47141C2.98695 8.59643 3.15652 8.66667 3.33333 8.66667Z" fill="white"/>
</svg>
