<svg width="16" height="16" viewBox="0 0 16 16" fill="none" xmlns="http://www.w3.org/2000/svg">
<path d="M12.6667 7.33334H6L8.19333 5.14001C8.25582 5.07803 8.30542 5.0043 8.33926 4.92306C8.37311 4.84182 8.39053 4.75468 8.39053 4.66668C8.39053 4.57867 8.37311 4.49153 8.33926 4.41029C8.30542 4.32905 8.25582 4.25532 8.19333 4.19334C8.06843 4.06918 7.89946 3.99948 7.72333 3.99948C7.54721 3.99948 7.37824 4.06918 7.25333 4.19334L4.39333 7.06001C4.14294 7.30891 4.00149 7.64696 4 8.00001C4.00324 8.35075 4.14456 8.68608 4.39333 8.93334L7.25333 11.8C7.31549 11.8617 7.3892 11.9106 7.47025 11.9438C7.55129 11.9771 7.63809 11.994 7.72569 11.9937C7.81329 11.9934 7.89997 11.9758 7.98078 11.942C8.06159 11.9082 8.13495 11.8588 8.19667 11.7967C8.25839 11.7345 8.30726 11.6608 8.3405 11.5798C8.37373 11.4987 8.39068 11.4119 8.39037 11.3243C8.39006 11.2367 8.3725 11.15 8.33869 11.0692C8.30489 10.9884 8.25549 10.9151 8.19333 10.8533L6 8.66668H12.6667C12.8435 8.66668 13.013 8.59644 13.1381 8.47141C13.2631 8.34639 13.3333 8.17682 13.3333 8.00001C13.3333 7.8232 13.2631 7.65363 13.1381 7.52861C13.013 7.40358 12.8435 7.33334 12.6667 7.33334Z" fill="white"/>
</svg>
