<svg width="17" height="16" viewBox="0 0 17 16" fill="none" xmlns="http://www.w3.org/2000/svg">
<g clip-path="url(#clip0_38_277)">
<path d="M9.16634 13.3333C10.0501 13.3323 10.8973 12.9808 11.5222 12.3559C12.1471 11.731 12.4986 10.8837 12.4997 10V4.16201C12.5007 3.81158 12.4322 3.46444 12.2981 3.14069C12.1639 2.81694 11.9669 2.52304 11.7183 2.27601L10.2237 0.781345C9.97665 0.532794 9.68274 0.335747 9.359 0.201625C9.03525 0.0675033 8.6881 -0.0010253 8.33767 1.15931e-05H5.16634C4.28261 0.00107016 3.43538 0.3526 2.81049 0.977492C2.1856 1.60238 1.83407 2.44961 1.83301 3.33334V10C1.83407 10.8837 2.1856 11.731 2.81049 12.3559C3.43538 12.9808 4.28261 13.3323 5.16634 13.3333H9.16634ZM3.16634 10V3.33334C3.16634 2.80291 3.37705 2.2942 3.75213 1.91913C4.1272 1.54406 4.63591 1.33334 5.16634 1.33334C5.16634 1.33334 8.44567 1.34268 8.49967 1.34934V2.66668C8.49967 3.0203 8.64015 3.35944 8.8902 3.60949C9.14025 3.85954 9.47939 4.00001 9.83301 4.00001H11.1503C11.157 4.05401 11.1663 10 11.1663 10C11.1663 10.5304 10.9556 11.0392 10.5806 11.4142C10.2055 11.7893 9.69677 12 9.16634 12H5.16634C4.63591 12 4.1272 11.7893 3.75213 11.4142C3.37705 11.0392 3.16634 10.5304 3.16634 10ZM15.1663 5.33334V12.6667C15.1653 13.5504 14.8138 14.3976 14.1889 15.0225C13.564 15.6474 12.7167 15.999 11.833 16H5.83301C5.6562 16 5.48663 15.9298 5.3616 15.8048C5.23658 15.6797 5.16634 15.5102 5.16634 15.3333C5.16634 15.1565 5.23658 14.987 5.3616 14.8619C5.48663 14.7369 5.6562 14.6667 5.83301 14.6667H11.833C12.3634 14.6667 12.8721 14.456 13.2472 14.0809C13.6223 13.7058 13.833 13.1971 13.833 12.6667V5.33334C13.833 5.15653 13.9032 4.98696 14.0283 4.86194C14.1533 4.73692 14.3229 4.66668 14.4997 4.66668C14.6765 4.66668 14.8461 4.73692 14.9711 4.86194C15.0961 4.98696 15.1663 5.15653 15.1663 5.33334Z" fill="white"/>
</g>
<defs>
<clipPath id="clip0_38_277">
<rect width="16" height="16" fill="white" transform="translate(0.5)"/>
</clipPath>
</defs>
</svg>
