<svg width="65" height="64" viewBox="0 0 65 64" fill="none" xmlns="http://www.w3.org/2000/svg">
<g clip-path="url(#clip0_55_161)">
<path d="M13.5833 61.3333L50.9167 61.3333C58.2687 61.3333 64.25 55.352 64.25 48L64.25 16C64.25 8.64801 58.2687 2.66667 50.9167 2.66667L13.5833 2.66667C6.23134 2.66667 0.250003 8.648 0.250002 16L0.249999 48C0.249999 55.352 6.23133 61.3333 13.5833 61.3333ZM5.58334 16C5.58334 11.5893 9.17267 8 13.5833 8L50.9167 8.00001C55.3273 8.00001 58.9167 11.5893 58.9167 16L58.9167 48C58.9167 52.4107 55.3273 56 50.9167 56L13.5833 56C9.17267 56 5.58333 52.4107 5.58333 48L5.58334 16ZM13.5833 45.3333C13.5833 43.8613 14.778 42.6667 16.25 42.6667L34.9167 42.6667C36.3887 42.6667 37.5833 43.8613 37.5833 45.3333C37.5833 46.8053 36.3887 48 34.9167 48L16.25 48C14.778 48 13.5833 46.8053 13.5833 45.3333ZM42.9167 45.3333C42.9167 43.1253 44.7087 41.3333 46.9167 41.3333C49.1247 41.3333 50.9167 43.1253 50.9167 45.3333C50.9167 47.5413 49.1247 49.3333 46.9167 49.3333C44.7087 49.3333 42.9167 47.5413 42.9167 45.3333ZM13.5833 32C13.5833 30.528 14.778 29.3333 16.25 29.3333L34.9167 29.3333C36.3887 29.3333 37.5833 30.528 37.5833 32C37.5833 33.472 36.3887 34.6667 34.9167 34.6667L16.25 34.6667C14.778 34.6667 13.5833 33.472 13.5833 32ZM42.9167 32C42.9167 29.792 44.7087 28 46.9167 28C49.1247 28 50.9167 29.792 50.9167 32C50.9167 34.208 49.1247 36 46.9167 36C44.7087 36 42.9167 34.208 42.9167 32ZM13.5833 18.6667C13.5833 17.1947 14.778 16 16.25 16L34.9167 16C36.3887 16 37.5833 17.1947 37.5833 18.6667C37.5833 20.1387 36.3887 21.3333 34.9167 21.3333L16.25 21.3333C14.778 21.3333 13.5833 20.1387 13.5833 18.6667ZM42.9167 18.6667C42.9167 16.4587 44.7087 14.6667 46.9167 14.6667C49.1247 14.6667 50.9167 16.4587 50.9167 18.6667C50.9167 20.8747 49.1247 22.6667 46.9167 22.6667C44.7087 22.6667 42.9167 20.8747 42.9167 18.6667Z" fill="white"/>
</g>
<defs>
<clipPath id="clip0_55_161">
<rect width="64" height="64" fill="white" transform="translate(64.25 64) rotate(-180)"/>
</clipPath>
</defs>
</svg>
