<svg width="65" height="64" viewBox="0 0 65 64" fill="none" xmlns="http://www.w3.org/2000/svg">
<g clip-path="url(#clip0_55_163)">
<path d="M32.75 0C26.421 0 20.2341 1.87677 14.9718 5.39297C9.70939 8.90918 5.60787 13.9069 3.18587 19.7541C0.763865 25.6014 0.130158 32.0355 1.36489 38.2429C2.59961 44.4503 5.64732 50.1521 10.1226 54.6274C14.5979 59.1027 20.2997 62.1504 26.5071 63.3851C32.7145 64.6199 39.1487 63.9862 44.9959 61.5642C50.8431 59.1421 55.8408 55.0406 59.357 49.7783C62.8732 44.5159 64.75 38.329 64.75 32C64.7408 23.5159 61.3665 15.3819 55.3673 9.38272C49.3681 3.38354 41.2341 0.00917622 32.75 0ZM32.75 58.6667C27.4758 58.6667 22.3201 57.1027 17.9348 54.1725C13.5495 51.2424 10.1316 47.0776 8.11323 42.2049C6.09489 37.3322 5.5668 31.9704 6.59574 26.7976C7.62468 21.6248 10.1644 16.8732 13.8938 13.1438C17.6232 9.41442 22.3748 6.87467 27.5476 5.84573C32.7204 4.81679 38.0822 5.34488 42.9549 7.36321C47.8276 9.38155 51.9924 12.7995 54.9225 17.1848C57.8527 21.5701 59.4167 26.7258 59.4167 32C59.4089 39.0701 56.5969 45.8483 51.5976 50.8476C46.5983 55.8469 39.8201 58.6589 32.75 58.6667Z" fill="white"/>
<path d="M32.7495 16C32.0423 16 31.364 16.281 30.8639 16.781C30.3638 17.2811 30.0829 17.9594 30.0829 18.6667V30.2L21.0935 35.832C20.4924 36.2075 20.065 36.8065 19.9055 37.4972C19.746 38.1878 19.8673 38.9135 20.2429 39.5147C20.6184 40.1158 21.2174 40.5432 21.908 40.7027C22.5987 40.8622 23.3244 40.7409 23.9255 40.3653L34.1655 33.9653C34.5524 33.7229 34.8706 33.3852 35.0896 32.9846C35.3086 32.584 35.421 32.1339 35.4162 31.6773V18.6667C35.4162 17.9594 35.1352 17.2811 34.6352 16.781C34.1351 16.281 33.4568 16 32.7495 16Z" fill="white"/>
</g>
<defs>
<clipPath id="clip0_55_163">
<rect width="64" height="64" fill="white" transform="translate(0.75)"/>
</clipPath>
</defs>
</svg>
