<svg width="16" height="16" viewBox="0 0 16 16" fill="none" xmlns="http://www.w3.org/2000/svg">
<path d="M6.66667 12.6667C6.66667 11.9333 7.26667 11.3333 8 11.3333C8.73333 11.3333 9.33333 11.9333 9.33333 12.6667C9.33333 13.4 8.73333 14 8 14C7.26667 14 6.66667 13.4 6.66667 12.6667ZM12.24 9.84C12.6333 9.44667 12.6333 8.81333 12.24 8.42667C9.9 6.08667 6.09333 6.08667 3.75333 8.42667C3.36 8.82 3.36 9.45333 3.75333 9.84C4.14667 10.2267 4.78 10.2333 5.16667 9.84C6.72667 8.28 9.26667 8.28 10.8267 9.84C11.02 10.0333 11.28 10.1333 11.5333 10.1333C11.7867 10.1333 12.0467 10.0333 12.24 9.84ZM15.6867 6.72667C16.0867 6.34667 16.1 5.71333 15.72 5.31333C15.66 5.25333 15.6 5.18667 15.54 5.12667C13.5267 3.11333 10.8467 2 8 2C5.15333 2 2.47333 3.10667 0.460001 5.12C0.400001 5.18 0.340001 5.24667 0.280001 5.30667C-0.0999987 5.70667 -0.0866654 6.34 0.313335 6.72C0.713335 7.1 1.34667 7.08667 1.72667 6.68667L1.87333 6.53333C3.51333 4.89333 5.68667 3.99333 8 3.99333C10.3133 3.99333 12.4933 4.89333 14.1333 6.53333L14.28 6.68C14.4733 6.88667 14.74 6.98667 15 6.98667C15.2467 6.98667 15.5 6.89333 15.6933 6.71333L15.6867 6.72667Z" fill="white"/>
</svg>
