<svg width="433" height="271" viewBox="0 0 433 271" fill="none" xmlns="http://www.w3.org/2000/svg">
<path d="M47.0685 34.1136V31.0625H47.631C47.8242 30.8864 48.006 30.6378 48.1765 30.3168C48.3498 29.9929 48.4961 29.5611 48.6154 29.0213C48.7376 28.4787 48.8185 27.7898 48.8583 26.9545L49.0458 23.2727H54.2276V31.0625H55.2333V34.0966H54.2276V32H48.0742V34.1136H47.0685ZM48.8924 31.0625H53.2219V24.2102H50.0004L49.864 26.9545C49.8299 27.5909 49.7702 28.1676 49.685 28.6847C49.5998 29.1989 49.4904 29.6548 49.3569 30.0526C49.2234 30.4474 49.0685 30.7841 48.8924 31.0625ZM56.8303 32V23.2727H59.7791C60.4638 23.2727 61.0234 23.3963 61.4581 23.6435C61.8956 23.8878 62.2195 24.2188 62.4297 24.6364C62.6399 25.054 62.745 25.5199 62.745 26.0341C62.745 26.5483 62.6399 27.0156 62.4297 27.4361C62.2223 27.8565 61.9013 28.1918 61.4666 28.4418C61.032 28.6889 60.4751 28.8125 59.7962 28.8125H57.6825V27.875H59.7621C60.2308 27.875 60.6072 27.794 60.8913 27.6321C61.1754 27.4702 61.3814 27.2514 61.5092 26.9759C61.6399 26.6974 61.7053 26.3835 61.7053 26.0341C61.7053 25.6847 61.6399 25.3722 61.5092 25.0966C61.3814 24.821 61.174 24.6051 60.8871 24.4489C60.6001 24.2898 60.2195 24.2102 59.745 24.2102H57.8871V32H56.8303ZM64.9077 32.1193V31.1307H65.4531C65.6634 31.1307 65.8395 31.0895 65.9815 31.0071C66.1264 30.9247 66.2457 30.8182 66.3395 30.6875C66.4361 30.5568 66.5156 30.4205 66.5781 30.2784L66.7145 29.9545L63.6974 23.2727H64.8395L67.2429 28.6932L69.4418 23.2727H70.5668L67.5497 30.5852C67.4304 30.858 67.294 31.1108 67.1406 31.3438C66.9901 31.5767 66.7841 31.7642 66.5227 31.9062C66.2642 32.0483 65.9134 32.1193 65.4702 32.1193H64.9077ZM77.2028 23.2727V24.2102H72.9925V32H71.9357V23.2727H77.2028ZM78.8381 23.2727H79.8778V30.142H79.9631L84.7358 23.2727H85.7585V32H84.7017V25.1477H84.6165L79.8608 32H78.8381V23.2727ZM87.8732 32V23.2727H93.1403V24.2102H88.93V27.1591H92.8675V28.0966H88.93V31.0625H93.2085V32H87.8732ZM105.443 26H104.386C104.324 25.696 104.214 25.429 104.058 25.1989C103.904 24.9688 103.717 24.7756 103.495 24.6193C103.277 24.4602 103.034 24.3409 102.767 24.2614C102.5 24.1818 102.221 24.142 101.931 24.142C101.403 24.142 100.924 24.2756 100.495 24.5426C100.069 24.8097 99.7298 25.2031 99.4769 25.723C99.2269 26.2429 99.1019 26.8807 99.1019 27.6364C99.1019 28.392 99.2269 29.0298 99.4769 29.5497C99.7298 30.0696 100.069 30.4631 100.495 30.7301C100.924 30.9972 101.403 31.1307 101.931 31.1307C102.221 31.1307 102.5 31.0909 102.767 31.0114C103.034 30.9318 103.277 30.8139 103.495 30.6577C103.717 30.4986 103.904 30.304 104.058 30.0739C104.214 29.8409 104.324 29.5739 104.386 29.2727H105.443C105.363 29.7187 105.218 30.1179 105.008 30.4702C104.798 30.8224 104.537 31.1222 104.224 31.3693C103.912 31.6136 103.561 31.7997 103.172 31.9276C102.785 32.0554 102.372 32.1193 101.931 32.1193C101.187 32.1193 100.525 31.9375 99.9457 31.5739C99.3661 31.2102 98.9102 30.6932 98.5778 30.0227C98.2454 29.3523 98.0792 28.5568 98.0792 27.6364C98.0792 26.7159 98.2454 25.9205 98.5778 25.25C98.9102 24.5795 99.3661 24.0625 99.9457 23.6989C100.525 23.3352 101.187 23.1534 101.931 23.1534C102.372 23.1534 102.785 23.2173 103.172 23.3452C103.561 23.473 103.912 23.6605 104.224 23.9077C104.537 24.152 104.798 24.4503 105.008 24.8026C105.218 25.152 105.363 25.5511 105.443 26ZM107.151 32V23.2727H112.418V24.2102H108.207V27.1591H112.145V28.0966H108.207V31.0625H112.486V32H107.151ZM113.845 24.2102V23.2727H120.391V24.2102H117.646V32H116.589V24.2102H113.845ZM122.022 23.2727H123.061V30.142H123.147L127.919 23.2727H128.942V32H127.885V25.1477H127.8L123.044 32H122.022V23.2727Z" fill="white"/>
<path d="M20 55C20 49.4772 24.4772 45 30 45H403C408.523 45 413 49.4772 413 55V96H20V55Z" fill="white" fill-opacity="0.1"/>
<path d="M59.6534 75.0682C59.4432 75.0682 59.2628 74.9929 59.1122 74.8423C58.9616 74.6918 58.8864 74.5114 58.8864 74.3011C58.8864 74.0909 58.9616 73.9105 59.1122 73.7599C59.2628 73.6094 59.4432 73.5341 59.6534 73.5341C59.8636 73.5341 60.044 73.6094 60.1946 73.7599C60.3452 73.9105 60.4205 74.0909 60.4205 74.3011C60.4205 74.4403 60.3849 74.5682 60.3139 74.6847C60.2457 74.8011 60.1534 74.8949 60.0369 74.9659C59.9233 75.0341 59.7955 75.0682 59.6534 75.0682ZM62.9581 75.0682C62.7479 75.0682 62.5675 74.9929 62.4169 74.8423C62.2663 74.6918 62.1911 74.5114 62.1911 74.3011C62.1911 74.0909 62.2663 73.9105 62.4169 73.7599C62.5675 73.6094 62.7479 73.5341 62.9581 73.5341C63.1683 73.5341 63.3487 73.6094 63.4993 73.7599C63.6499 73.9105 63.7251 74.0909 63.7251 74.3011C63.7251 74.4403 63.6896 74.5682 63.6186 74.6847C63.5504 74.8011 63.4581 74.8949 63.3416 74.9659C63.228 75.0341 63.1001 75.0682 62.9581 75.0682ZM66.2628 75.0682C66.0526 75.0682 65.8722 74.9929 65.7216 74.8423C65.571 74.6918 65.4957 74.5114 65.4957 74.3011C65.4957 74.0909 65.571 73.9105 65.7216 73.7599C65.8722 73.6094 66.0526 73.5341 66.2628 73.5341C66.473 73.5341 66.6534 73.6094 66.804 73.7599C66.9545 73.9105 67.0298 74.0909 67.0298 74.3011C67.0298 74.4403 66.9943 74.5682 66.9233 74.6847C66.8551 74.8011 66.7628 74.8949 66.6463 74.9659C66.5327 75.0341 66.4048 75.0682 66.2628 75.0682Z" fill="white"/>
<rect width="393" height="52" transform="translate(20 96)" fill="white" fill-opacity="0.25"/>
<path d="M59.0568 126.5V117.773H60.1136V122.102H60.2159L64.1364 117.773H65.517L61.8523 121.71L65.517 126.5H64.2386L61.2045 122.443L60.1136 123.67V126.5H59.0568ZM69.0124 126.636C68.3817 126.636 67.8377 126.497 67.3803 126.219C66.9258 125.938 66.5749 125.545 66.3278 125.043C66.0835 124.537 65.9613 123.949 65.9613 123.278C65.9613 122.608 66.0835 122.017 66.3278 121.506C66.5749 120.991 66.9187 120.591 67.359 120.304C67.8022 120.014 68.3192 119.869 68.9102 119.869C69.2511 119.869 69.5877 119.926 69.9201 120.04C70.2525 120.153 70.555 120.338 70.8278 120.594C71.1005 120.847 71.3178 121.182 71.4798 121.599C71.6417 122.017 71.7227 122.531 71.7227 123.142V123.568H66.6772V122.699H70.6999C70.6999 122.33 70.6261 122 70.4783 121.71C70.3335 121.42 70.1261 121.192 69.8562 121.024C69.5891 120.857 69.2738 120.773 68.9102 120.773C68.5096 120.773 68.163 120.872 67.8704 121.071C67.5806 121.267 67.3576 121.523 67.2013 121.838C67.0451 122.153 66.967 122.491 66.967 122.852V123.432C66.967 123.926 67.0522 124.345 67.2227 124.689C67.396 125.03 67.636 125.29 67.9428 125.469C68.2496 125.645 68.6062 125.733 69.0124 125.733C69.2766 125.733 69.5153 125.696 69.7283 125.622C69.9442 125.545 70.1303 125.432 70.2866 125.281C70.4428 125.128 70.5636 124.937 70.6488 124.71L71.6204 124.983C71.5181 125.312 71.3462 125.602 71.1048 125.852C70.8633 126.099 70.565 126.293 70.2099 126.432C69.8548 126.568 69.4556 126.636 69.0124 126.636ZM75.9968 126.636C75.3661 126.636 74.8221 126.497 74.3647 126.219C73.9102 125.938 73.5593 125.545 73.3121 125.043C73.0678 124.537 72.9457 123.949 72.9457 123.278C72.9457 122.608 73.0678 122.017 73.3121 121.506C73.5593 120.991 73.9031 120.591 74.3434 120.304C74.7866 120.014 75.3036 119.869 75.8945 119.869C76.2354 119.869 76.5721 119.926 76.9045 120.04C77.2369 120.153 77.5394 120.338 77.8121 120.594C78.0849 120.847 78.3022 121.182 78.4641 121.599C78.6261 122.017 78.707 122.531 78.707 123.142V123.568H73.6616V122.699H77.6843C77.6843 122.33 77.6104 122 77.4627 121.71C77.3178 121.42 77.1104 121.192 76.8406 121.024C76.5735 120.857 76.2582 120.773 75.8945 120.773C75.494 120.773 75.1474 120.872 74.8548 121.071C74.565 121.267 74.342 121.523 74.1857 121.838C74.0295 122.153 73.9513 122.491 73.9513 122.852V123.432C73.9513 123.926 74.0366 124.345 74.207 124.689C74.3803 125.03 74.6204 125.29 74.9272 125.469C75.234 125.645 75.5906 125.733 75.9968 125.733C76.261 125.733 76.4996 125.696 76.7127 125.622C76.9286 125.545 77.1147 125.432 77.271 125.281C77.4272 125.128 77.5479 124.937 77.6332 124.71L78.6048 124.983C78.5025 125.312 78.3306 125.602 78.0891 125.852C77.8477 126.099 77.5494 126.293 77.1942 126.432C76.8391 126.568 76.44 126.636 75.9968 126.636ZM80.2369 128.955V119.955H81.2085V120.994H81.3278C81.4016 120.881 81.5039 120.736 81.6346 120.56C81.7681 120.381 81.9585 120.222 82.2056 120.082C82.4556 119.94 82.7937 119.869 83.2198 119.869C83.771 119.869 84.2567 120.007 84.6772 120.283C85.0977 120.558 85.4258 120.949 85.6616 121.455C85.8974 121.96 86.0153 122.557 86.0153 123.244C86.0153 123.938 85.8974 124.538 85.6616 125.047C85.4258 125.553 85.0991 125.945 84.6815 126.223C84.2638 126.499 83.7823 126.636 83.2369 126.636C82.8164 126.636 82.4798 126.567 82.2269 126.428C81.9741 126.286 81.7795 126.125 81.6431 125.946C81.5067 125.764 81.4016 125.614 81.3278 125.494H81.2425V128.955H80.2369ZM81.2255 123.227C81.2255 123.722 81.2979 124.158 81.4428 124.536C81.5877 124.911 81.7994 125.205 82.0778 125.418C82.3562 125.628 82.6971 125.733 83.1005 125.733C83.521 125.733 83.8718 125.622 84.1531 125.401C84.4371 125.176 84.6502 124.875 84.7923 124.497C84.9371 124.116 85.0096 123.693 85.0096 123.227C85.0096 122.767 84.9386 122.352 84.7965 121.983C84.6573 121.611 84.4457 121.317 84.1616 121.101C83.8803 120.882 83.5266 120.773 83.1005 120.773C82.6914 120.773 82.3477 120.876 82.0692 121.084C81.7908 121.288 81.5806 121.575 81.4386 121.945C81.2965 122.311 81.2255 122.739 81.2255 123.227ZM90.2085 126.636C89.5948 126.636 89.0664 126.491 88.6232 126.202C88.18 125.912 87.8391 125.513 87.6005 125.004C87.3619 124.496 87.2425 123.915 87.2425 123.261C87.2425 122.597 87.3647 122.01 87.609 121.501C87.8562 120.99 88.1999 120.591 88.6403 120.304C89.0835 120.014 89.6005 119.869 90.1914 119.869C90.6516 119.869 91.0664 119.955 91.4357 120.125C91.805 120.295 92.1076 120.534 92.3434 120.841C92.5792 121.148 92.7255 121.506 92.7823 121.915H91.7766C91.6999 121.616 91.5295 121.352 91.2653 121.122C91.0039 120.889 90.6516 120.773 90.2085 120.773C89.8164 120.773 89.4727 120.875 89.1772 121.08C88.8846 121.281 88.6559 121.567 88.4911 121.936C88.3292 122.303 88.2482 122.733 88.2482 123.227C88.2482 123.733 88.3278 124.173 88.4869 124.548C88.6488 124.923 88.8761 125.214 89.1687 125.422C89.4641 125.629 89.8107 125.733 90.2085 125.733C90.4698 125.733 90.707 125.688 90.9201 125.597C91.1332 125.506 91.3136 125.375 91.4613 125.205C91.609 125.034 91.7141 124.83 91.7766 124.591H92.7823C92.7255 124.977 92.5849 125.325 92.3604 125.635C92.1388 125.942 91.8448 126.186 91.4783 126.368C91.1147 126.547 90.6914 126.636 90.2085 126.636ZM96.1786 126.653C95.7638 126.653 95.3874 126.575 95.0494 126.419C94.7113 126.26 94.4428 126.031 94.244 125.733C94.0451 125.432 93.9457 125.068 93.9457 124.642C93.9457 124.267 94.0195 123.963 94.1673 123.73C94.315 123.494 94.5124 123.31 94.7596 123.176C95.0067 123.043 95.2795 122.943 95.5778 122.878C95.8789 122.81 96.1815 122.756 96.4854 122.716C96.8832 122.665 97.2056 122.626 97.4528 122.601C97.7028 122.572 97.8846 122.526 97.9982 122.46C98.1147 122.395 98.1729 122.281 98.1729 122.119V122.085C98.1729 121.665 98.0579 121.338 97.8278 121.105C97.6005 120.872 97.2553 120.756 96.7923 120.756C96.3121 120.756 95.9357 120.861 95.663 121.071C95.3903 121.281 95.1985 121.506 95.0877 121.744L94.1332 121.403C94.3036 121.006 94.5309 120.696 94.815 120.474C95.1019 120.25 95.4144 120.094 95.7525 120.006C96.0934 119.915 96.4286 119.869 96.7582 119.869C96.9684 119.869 97.2099 119.895 97.4826 119.946C97.7582 119.994 98.0238 120.095 98.2795 120.249C98.538 120.402 98.7525 120.634 98.9229 120.943C99.0934 121.253 99.1786 121.668 99.1786 122.188V126.5H98.1729V125.614H98.1218C98.0536 125.756 97.94 125.908 97.7809 126.07C97.6218 126.232 97.4102 126.369 97.146 126.483C96.8817 126.597 96.5593 126.653 96.1786 126.653ZM96.332 125.75C96.7298 125.75 97.065 125.672 97.3377 125.516C97.6133 125.359 97.8207 125.158 97.9599 124.911C98.1019 124.663 98.1729 124.403 98.1729 124.131V123.21C98.1303 123.261 98.0366 123.308 97.8917 123.351C97.7496 123.391 97.5849 123.426 97.3974 123.457C97.2127 123.486 97.0323 123.511 96.8562 123.534C96.6829 123.554 96.5423 123.571 96.4343 123.585C96.1729 123.619 95.9286 123.675 95.7013 123.751C95.4769 123.825 95.2951 123.937 95.1559 124.088C95.0195 124.236 94.9513 124.437 94.9513 124.693C94.9513 125.043 95.0806 125.307 95.3391 125.486C95.6005 125.662 95.9315 125.75 96.332 125.75ZM102.02 117.773V126.5H101.014V117.773H102.02ZM103.862 126.5V119.955H104.833V120.977H104.919C105.055 120.628 105.275 120.357 105.579 120.163C105.883 119.967 106.248 119.869 106.674 119.869C107.106 119.869 107.466 119.967 107.752 120.163C108.042 120.357 108.268 120.628 108.43 120.977H108.498C108.666 120.639 108.917 120.371 109.252 120.172C109.588 119.97 109.99 119.869 110.458 119.869C111.044 119.869 111.522 120.053 111.895 120.419C112.267 120.783 112.453 121.349 112.453 122.119V126.5H111.447V122.119C111.447 121.636 111.315 121.291 111.051 121.084C110.787 120.876 110.475 120.773 110.118 120.773C109.657 120.773 109.301 120.912 109.048 121.19C108.795 121.466 108.669 121.815 108.669 122.239V126.5H107.646V122.017C107.646 121.645 107.525 121.345 107.284 121.118C107.042 120.888 106.731 120.773 106.35 120.773C106.089 120.773 105.845 120.842 105.618 120.982C105.393 121.121 105.211 121.314 105.072 121.561C104.936 121.805 104.868 122.088 104.868 122.409V126.5H103.862ZM118.928 121.42L118.025 121.676C117.968 121.526 117.884 121.379 117.773 121.237C117.665 121.092 117.517 120.973 117.33 120.879C117.142 120.786 116.902 120.739 116.61 120.739C116.209 120.739 115.875 120.831 115.608 121.016C115.344 121.197 115.212 121.429 115.212 121.71C115.212 121.96 115.303 122.158 115.485 122.303C115.667 122.447 115.951 122.568 116.337 122.665L117.309 122.903C117.894 123.045 118.33 123.263 118.617 123.555C118.904 123.845 119.047 124.219 119.047 124.676C119.047 125.051 118.939 125.386 118.723 125.682C118.51 125.977 118.212 126.21 117.828 126.381C117.445 126.551 116.999 126.636 116.49 126.636C115.823 126.636 115.27 126.491 114.833 126.202C114.395 125.912 114.118 125.489 114.002 124.932L114.956 124.693C115.047 125.045 115.219 125.31 115.472 125.486C115.728 125.662 116.061 125.75 116.473 125.75C116.942 125.75 117.314 125.651 117.59 125.452C117.868 125.25 118.007 125.009 118.007 124.727C118.007 124.5 117.928 124.31 117.769 124.156C117.61 124 117.365 123.884 117.036 123.807L115.945 123.551C115.346 123.409 114.905 123.189 114.624 122.891C114.346 122.589 114.206 122.213 114.206 121.761C114.206 121.392 114.31 121.065 114.517 120.781C114.728 120.497 115.013 120.274 115.374 120.112C115.738 119.95 116.15 119.869 116.61 119.869C117.257 119.869 117.766 120.011 118.135 120.295C118.507 120.58 118.772 120.955 118.928 121.42ZM120.697 126.5V117.773H121.703V120.994H121.788C121.862 120.881 121.964 120.736 122.095 120.56C122.229 120.381 122.419 120.222 122.666 120.082C122.916 119.94 123.254 119.869 123.68 119.869C124.232 119.869 124.717 120.007 125.138 120.283C125.558 120.558 125.886 120.949 126.122 121.455C126.358 121.96 126.476 122.557 126.476 123.244C126.476 123.938 126.358 124.538 126.122 125.047C125.886 125.553 125.56 125.945 125.142 126.223C124.724 126.499 124.243 126.636 123.697 126.636C123.277 126.636 122.94 126.567 122.688 126.428C122.435 126.286 122.24 126.125 122.104 125.946C121.967 125.764 121.862 125.614 121.788 125.494H121.669V126.5H120.697ZM121.686 123.227C121.686 123.722 121.759 124.158 121.903 124.536C122.048 124.911 122.26 125.205 122.538 125.418C122.817 125.628 123.158 125.733 123.561 125.733C123.982 125.733 124.332 125.622 124.614 125.401C124.898 125.176 125.111 124.875 125.253 124.497C125.398 124.116 125.47 123.693 125.47 123.227C125.47 122.767 125.399 122.352 125.257 121.983C125.118 121.611 124.906 121.317 124.622 121.101C124.341 120.882 123.987 120.773 123.561 120.773C123.152 120.773 122.808 120.876 122.53 121.084C122.251 121.288 122.041 121.575 121.899 121.945C121.757 122.311 121.686 122.739 121.686 123.227ZM130.656 129.091C130.17 129.091 129.753 129.028 129.403 128.903C129.054 128.781 128.763 128.619 128.53 128.418C128.3 128.219 128.116 128.006 127.98 127.778L128.781 127.216C128.872 127.335 128.987 127.472 129.126 127.625C129.266 127.781 129.456 127.916 129.697 128.03C129.942 128.146 130.261 128.205 130.656 128.205C131.185 128.205 131.621 128.077 131.964 127.821C132.308 127.565 132.48 127.165 132.48 126.619V125.29H132.395C132.321 125.409 132.216 125.557 132.08 125.733C131.946 125.906 131.753 126.061 131.5 126.197C131.25 126.331 130.912 126.398 130.486 126.398C129.957 126.398 129.483 126.273 129.062 126.023C128.645 125.773 128.314 125.409 128.07 124.932C127.828 124.455 127.707 123.875 127.707 123.193C127.707 122.523 127.825 121.939 128.061 121.442C128.297 120.942 128.625 120.555 129.045 120.283C129.466 120.007 129.952 119.869 130.503 119.869C130.929 119.869 131.267 119.94 131.517 120.082C131.77 120.222 131.963 120.381 132.097 120.56C132.233 120.736 132.338 120.881 132.412 120.994H132.514V119.955H133.486V126.688C133.486 127.25 133.358 127.707 133.102 128.06C132.849 128.415 132.509 128.675 132.08 128.839C131.653 129.007 131.179 129.091 130.656 129.091ZM130.622 125.494C131.026 125.494 131.366 125.402 131.645 125.217C131.923 125.033 132.135 124.767 132.28 124.42C132.425 124.074 132.497 123.659 132.497 123.176C132.497 122.705 132.426 122.288 132.284 121.928C132.142 121.567 131.932 121.284 131.653 121.08C131.375 120.875 131.031 120.773 130.622 120.773C130.196 120.773 129.841 120.881 129.557 121.097C129.276 121.312 129.064 121.602 128.922 121.966C128.783 122.33 128.713 122.733 128.713 123.176C128.713 123.631 128.784 124.033 128.926 124.382C129.071 124.729 129.284 125.001 129.565 125.2C129.849 125.396 130.202 125.494 130.622 125.494Z" fill="white"/>
<path d="M313.667 126.667C313.667 125.933 314.267 125.333 315 125.333C315.733 125.333 316.333 125.933 316.333 126.667C316.333 127.4 315.733 128 315 128C314.267 128 313.667 127.4 313.667 126.667ZM319.24 123.84C319.633 123.447 319.633 122.813 319.24 122.427C316.9 120.087 313.093 120.087 310.753 122.427C310.36 122.82 310.36 123.453 310.753 123.84C311.147 124.227 311.78 124.233 312.167 123.84C313.727 122.28 316.267 122.28 317.827 123.84C318.02 124.033 318.28 124.133 318.533 124.133C318.787 124.133 319.047 124.033 319.24 123.84ZM322.687 120.727C323.087 120.347 323.1 119.713 322.72 119.313C322.66 119.253 322.6 119.187 322.54 119.127C320.527 117.113 317.847 116 315 116C312.153 116 309.473 117.107 307.46 119.12C307.4 119.18 307.34 119.247 307.28 119.307C306.9 119.707 306.913 120.34 307.313 120.72C307.713 121.1 308.347 121.087 308.727 120.687L308.873 120.533C310.513 118.893 312.687 117.993 315 117.993C317.313 117.993 319.493 118.893 321.133 120.533L321.28 120.68C321.473 120.887 321.74 120.987 322 120.987C322.247 120.987 322.5 120.893 322.693 120.713L322.687 120.727Z" fill="white"/>
<path d="M345.666 119.616V118.667C345.666 116.089 343.577 114 341 114C338.422 114 336.333 116.089 336.333 118.667V119.616C335.12 120.146 334.335 121.343 334.333 122.667V126.667C334.335 128.507 335.826 129.998 337.666 130H344.333C346.173 129.998 347.664 128.507 347.666 126.667V122.667C347.665 121.343 346.88 120.146 345.666 119.616ZM341.666 125.333C341.666 125.702 341.368 126 341 126C340.631 126 340.333 125.702 340.333 125.333V124C340.333 123.632 340.631 123.333 341 123.333C341.368 123.333 341.666 123.632 341.666 124V125.333ZM344.333 119.333H337.666V118.667C337.666 116.826 339.159 115.333 341 115.333C342.841 115.333 344.333 116.826 344.333 118.667V119.333Z" fill="white"/>
<g clip-path="url(#clip0_54_94)">
<path d="M367 114C365.418 114 363.871 114.469 362.555 115.348C361.24 116.227 360.214 117.477 359.609 118.939C359.003 120.4 358.845 122.009 359.154 123.561C359.462 125.113 360.224 126.538 361.343 127.657C362.462 128.776 363.887 129.538 365.439 129.846C366.991 130.155 368.6 129.997 370.061 129.391C371.523 128.786 372.773 127.76 373.652 126.445C374.531 125.129 375 123.582 375 122C374.998 119.879 374.154 117.845 372.654 116.346C371.155 114.846 369.121 114.002 367 114ZM367 128.667C365.681 128.667 364.393 128.276 363.296 127.543C362.2 126.811 361.345 125.769 360.841 124.551C360.336 123.333 360.204 121.993 360.461 120.699C360.719 119.406 361.354 118.218 362.286 117.286C363.218 116.354 364.406 115.719 365.699 115.461C366.993 115.204 368.333 115.336 369.551 115.841C370.769 116.345 371.811 117.2 372.543 118.296C373.276 119.393 373.667 120.681 373.667 122C373.665 123.768 372.962 125.462 371.712 126.712C370.462 127.962 368.768 128.665 367 128.667Z" fill="#00A3FF"/>
<path d="M367 120.667H366.334C366.157 120.667 365.987 120.737 365.862 120.862C365.737 120.987 365.667 121.157 365.667 121.333C365.667 121.51 365.737 121.68 365.862 121.805C365.987 121.93 366.157 122 366.334 122H367V126C367 126.177 367.071 126.346 367.196 126.471C367.321 126.596 367.49 126.667 367.667 126.667C367.844 126.667 368.013 126.596 368.138 126.471C368.263 126.346 368.334 126.177 368.334 126V122C368.334 121.646 368.193 121.307 367.943 121.057C367.693 120.807 367.354 120.667 367 120.667Z" fill="#00A3FF"/>
<path d="M367 119.333C367.552 119.333 368 118.886 368 118.333C368 117.781 367.552 117.333 367 117.333C366.448 117.333 366 117.781 366 118.333C366 118.886 366.448 119.333 367 119.333Z" fill="#00A3FF"/>
</g>
<rect width="393" height="52" transform="translate(20 148)" fill="white" fill-opacity="0.25"/>
<path d="M59.0568 178.5V169.773H60.1136V174.102H60.2159L64.1364 169.773H65.517L61.8523 173.71L65.517 178.5H64.2386L61.2045 174.443L60.1136 175.67V178.5H59.0568ZM69.0124 178.636C68.3817 178.636 67.8377 178.497 67.3803 178.219C66.9258 177.938 66.5749 177.545 66.3278 177.043C66.0835 176.537 65.9613 175.949 65.9613 175.278C65.9613 174.608 66.0835 174.017 66.3278 173.506C66.5749 172.991 66.9187 172.591 67.359 172.304C67.8022 172.014 68.3192 171.869 68.9102 171.869C69.2511 171.869 69.5877 171.926 69.9201 172.04C70.2525 172.153 70.555 172.338 70.8278 172.594C71.1005 172.847 71.3178 173.182 71.4798 173.599C71.6417 174.017 71.7227 174.531 71.7227 175.142V175.568H66.6772V174.699H70.6999C70.6999 174.33 70.6261 174 70.4783 173.71C70.3335 173.42 70.1261 173.192 69.8562 173.024C69.5891 172.857 69.2738 172.773 68.9102 172.773C68.5096 172.773 68.163 172.872 67.8704 173.071C67.5806 173.267 67.3576 173.523 67.2013 173.838C67.0451 174.153 66.967 174.491 66.967 174.852V175.432C66.967 175.926 67.0522 176.345 67.2227 176.689C67.396 177.03 67.636 177.29 67.9428 177.469C68.2496 177.645 68.6062 177.733 69.0124 177.733C69.2766 177.733 69.5153 177.696 69.7283 177.622C69.9442 177.545 70.1303 177.432 70.2866 177.281C70.4428 177.128 70.5636 176.937 70.6488 176.71L71.6204 176.983C71.5181 177.312 71.3462 177.602 71.1048 177.852C70.8633 178.099 70.565 178.293 70.2099 178.432C69.8548 178.568 69.4556 178.636 69.0124 178.636ZM75.9968 178.636C75.3661 178.636 74.8221 178.497 74.3647 178.219C73.9102 177.938 73.5593 177.545 73.3121 177.043C73.0678 176.537 72.9457 175.949 72.9457 175.278C72.9457 174.608 73.0678 174.017 73.3121 173.506C73.5593 172.991 73.9031 172.591 74.3434 172.304C74.7866 172.014 75.3036 171.869 75.8945 171.869C76.2354 171.869 76.5721 171.926 76.9045 172.04C77.2369 172.153 77.5394 172.338 77.8121 172.594C78.0849 172.847 78.3022 173.182 78.4641 173.599C78.6261 174.017 78.707 174.531 78.707 175.142V175.568H73.6616V174.699H77.6843C77.6843 174.33 77.6104 174 77.4627 173.71C77.3178 173.42 77.1104 173.192 76.8406 173.024C76.5735 172.857 76.2582 172.773 75.8945 172.773C75.494 172.773 75.1474 172.872 74.8548 173.071C74.565 173.267 74.342 173.523 74.1857 173.838C74.0295 174.153 73.9513 174.491 73.9513 174.852V175.432C73.9513 175.926 74.0366 176.345 74.207 176.689C74.3803 177.03 74.6204 177.29 74.9272 177.469C75.234 177.645 75.5906 177.733 75.9968 177.733C76.261 177.733 76.4996 177.696 76.7127 177.622C76.9286 177.545 77.1147 177.432 77.271 177.281C77.4272 177.128 77.5479 176.937 77.6332 176.71L78.6048 176.983C78.5025 177.312 78.3306 177.602 78.0891 177.852C77.8477 178.099 77.5494 178.293 77.1942 178.432C76.8391 178.568 76.44 178.636 75.9968 178.636ZM80.2369 180.955V171.955H81.2085V172.994H81.3278C81.4016 172.881 81.5039 172.736 81.6346 172.56C81.7681 172.381 81.9585 172.222 82.2056 172.082C82.4556 171.94 82.7937 171.869 83.2198 171.869C83.771 171.869 84.2567 172.007 84.6772 172.283C85.0977 172.558 85.4258 172.949 85.6616 173.455C85.8974 173.96 86.0153 174.557 86.0153 175.244C86.0153 175.938 85.8974 176.538 85.6616 177.047C85.4258 177.553 85.0991 177.945 84.6815 178.223C84.2638 178.499 83.7823 178.636 83.2369 178.636C82.8164 178.636 82.4798 178.567 82.2269 178.428C81.9741 178.286 81.7795 178.125 81.6431 177.946C81.5067 177.764 81.4016 177.614 81.3278 177.494H81.2425V180.955H80.2369ZM81.2255 175.227C81.2255 175.722 81.2979 176.158 81.4428 176.536C81.5877 176.911 81.7994 177.205 82.0778 177.418C82.3562 177.628 82.6971 177.733 83.1005 177.733C83.521 177.733 83.8718 177.622 84.1531 177.401C84.4371 177.176 84.6502 176.875 84.7923 176.497C84.9371 176.116 85.0096 175.693 85.0096 175.227C85.0096 174.767 84.9386 174.352 84.7965 173.983C84.6573 173.611 84.4457 173.317 84.1616 173.101C83.8803 172.882 83.5266 172.773 83.1005 172.773C82.6914 172.773 82.3477 172.876 82.0692 173.084C81.7908 173.288 81.5806 173.575 81.4386 173.945C81.2965 174.311 81.2255 174.739 81.2255 175.227ZM90.2085 178.636C89.5948 178.636 89.0664 178.491 88.6232 178.202C88.18 177.912 87.8391 177.513 87.6005 177.004C87.3619 176.496 87.2425 175.915 87.2425 175.261C87.2425 174.597 87.3647 174.01 87.609 173.501C87.8562 172.99 88.1999 172.591 88.6403 172.304C89.0835 172.014 89.6005 171.869 90.1914 171.869C90.6516 171.869 91.0664 171.955 91.4357 172.125C91.805 172.295 92.1076 172.534 92.3434 172.841C92.5792 173.148 92.7255 173.506 92.7823 173.915H91.7766C91.6999 173.616 91.5295 173.352 91.2653 173.122C91.0039 172.889 90.6516 172.773 90.2085 172.773C89.8164 172.773 89.4727 172.875 89.1772 173.08C88.8846 173.281 88.6559 173.567 88.4911 173.936C88.3292 174.303 88.2482 174.733 88.2482 175.227C88.2482 175.733 88.3278 176.173 88.4869 176.548C88.6488 176.923 88.8761 177.214 89.1687 177.422C89.4641 177.629 89.8107 177.733 90.2085 177.733C90.4698 177.733 90.707 177.688 90.9201 177.597C91.1332 177.506 91.3136 177.375 91.4613 177.205C91.609 177.034 91.7141 176.83 91.7766 176.591H92.7823C92.7255 176.977 92.5849 177.325 92.3604 177.635C92.1388 177.942 91.8448 178.186 91.4783 178.368C91.1147 178.547 90.6914 178.636 90.2085 178.636ZM96.1786 178.653C95.7638 178.653 95.3874 178.575 95.0494 178.419C94.7113 178.26 94.4428 178.031 94.244 177.733C94.0451 177.432 93.9457 177.068 93.9457 176.642C93.9457 176.267 94.0195 175.963 94.1673 175.73C94.315 175.494 94.5124 175.31 94.7596 175.176C95.0067 175.043 95.2795 174.943 95.5778 174.878C95.8789 174.81 96.1815 174.756 96.4854 174.716C96.8832 174.665 97.2056 174.626 97.4528 174.601C97.7028 174.572 97.8846 174.526 97.9982 174.46C98.1147 174.395 98.1729 174.281 98.1729 174.119V174.085C98.1729 173.665 98.0579 173.338 97.8278 173.105C97.6005 172.872 97.2553 172.756 96.7923 172.756C96.3121 172.756 95.9357 172.861 95.663 173.071C95.3903 173.281 95.1985 173.506 95.0877 173.744L94.1332 173.403C94.3036 173.006 94.5309 172.696 94.815 172.474C95.1019 172.25 95.4144 172.094 95.7525 172.006C96.0934 171.915 96.4286 171.869 96.7582 171.869C96.9684 171.869 97.2099 171.895 97.4826 171.946C97.7582 171.994 98.0238 172.095 98.2795 172.249C98.538 172.402 98.7525 172.634 98.9229 172.943C99.0934 173.253 99.1786 173.668 99.1786 174.188V178.5H98.1729V177.614H98.1218C98.0536 177.756 97.94 177.908 97.7809 178.07C97.6218 178.232 97.4102 178.369 97.146 178.483C96.8817 178.597 96.5593 178.653 96.1786 178.653ZM96.332 177.75C96.7298 177.75 97.065 177.672 97.3377 177.516C97.6133 177.359 97.8207 177.158 97.9599 176.911C98.1019 176.663 98.1729 176.403 98.1729 176.131V175.21C98.1303 175.261 98.0366 175.308 97.8917 175.351C97.7496 175.391 97.5849 175.426 97.3974 175.457C97.2127 175.486 97.0323 175.511 96.8562 175.534C96.6829 175.554 96.5423 175.571 96.4343 175.585C96.1729 175.619 95.9286 175.675 95.7013 175.751C95.4769 175.825 95.2951 175.937 95.1559 176.088C95.0195 176.236 94.9513 176.437 94.9513 176.693C94.9513 177.043 95.0806 177.307 95.3391 177.486C95.6005 177.662 95.9315 177.75 96.332 177.75ZM102.02 169.773V178.5H101.014V169.773H102.02ZM103.862 178.5V171.955H104.833V172.977H104.919C105.055 172.628 105.275 172.357 105.579 172.163C105.883 171.967 106.248 171.869 106.674 171.869C107.106 171.869 107.466 171.967 107.752 172.163C108.042 172.357 108.268 172.628 108.43 172.977H108.498C108.666 172.639 108.917 172.371 109.252 172.172C109.588 171.97 109.99 171.869 110.458 171.869C111.044 171.869 111.522 172.053 111.895 172.419C112.267 172.783 112.453 173.349 112.453 174.119V178.5H111.447V174.119C111.447 173.636 111.315 173.291 111.051 173.084C110.787 172.876 110.475 172.773 110.118 172.773C109.657 172.773 109.301 172.912 109.048 173.19C108.795 173.466 108.669 173.815 108.669 174.239V178.5H107.646V174.017C107.646 173.645 107.525 173.345 107.284 173.118C107.042 172.888 106.731 172.773 106.35 172.773C106.089 172.773 105.845 172.842 105.618 172.982C105.393 173.121 105.211 173.314 105.072 173.561C104.936 173.805 104.868 174.088 104.868 174.409V178.5H103.862ZM118.928 173.42L118.025 173.676C117.968 173.526 117.884 173.379 117.773 173.237C117.665 173.092 117.517 172.973 117.33 172.879C117.142 172.786 116.902 172.739 116.61 172.739C116.209 172.739 115.875 172.831 115.608 173.016C115.344 173.197 115.212 173.429 115.212 173.71C115.212 173.96 115.303 174.158 115.485 174.303C115.667 174.447 115.951 174.568 116.337 174.665L117.309 174.903C117.894 175.045 118.33 175.263 118.617 175.555C118.904 175.845 119.047 176.219 119.047 176.676C119.047 177.051 118.939 177.386 118.723 177.682C118.51 177.977 118.212 178.21 117.828 178.381C117.445 178.551 116.999 178.636 116.49 178.636C115.823 178.636 115.27 178.491 114.833 178.202C114.395 177.912 114.118 177.489 114.002 176.932L114.956 176.693C115.047 177.045 115.219 177.31 115.472 177.486C115.728 177.662 116.061 177.75 116.473 177.75C116.942 177.75 117.314 177.651 117.59 177.452C117.868 177.25 118.007 177.009 118.007 176.727C118.007 176.5 117.928 176.31 117.769 176.156C117.61 176 117.365 175.884 117.036 175.807L115.945 175.551C115.346 175.409 114.905 175.189 114.624 174.891C114.346 174.589 114.206 174.213 114.206 173.761C114.206 173.392 114.31 173.065 114.517 172.781C114.728 172.497 115.013 172.274 115.374 172.112C115.738 171.95 116.15 171.869 116.61 171.869C117.257 171.869 117.766 172.011 118.135 172.295C118.507 172.58 118.772 172.955 118.928 173.42ZM120.697 178.5V169.773H121.703V172.994H121.788C121.862 172.881 121.964 172.736 122.095 172.56C122.229 172.381 122.419 172.222 122.666 172.082C122.916 171.94 123.254 171.869 123.68 171.869C124.232 171.869 124.717 172.007 125.138 172.283C125.558 172.558 125.886 172.949 126.122 173.455C126.358 173.96 126.476 174.557 126.476 175.244C126.476 175.938 126.358 176.538 126.122 177.047C125.886 177.553 125.56 177.945 125.142 178.223C124.724 178.499 124.243 178.636 123.697 178.636C123.277 178.636 122.94 178.567 122.688 178.428C122.435 178.286 122.24 178.125 122.104 177.946C121.967 177.764 121.862 177.614 121.788 177.494H121.669V178.5H120.697ZM121.686 175.227C121.686 175.722 121.759 176.158 121.903 176.536C122.048 176.911 122.26 177.205 122.538 177.418C122.817 177.628 123.158 177.733 123.561 177.733C123.982 177.733 124.332 177.622 124.614 177.401C124.898 177.176 125.111 176.875 125.253 176.497C125.398 176.116 125.47 175.693 125.47 175.227C125.47 174.767 125.399 174.352 125.257 173.983C125.118 173.611 124.906 173.317 124.622 173.101C124.341 172.882 123.987 172.773 123.561 172.773C123.152 172.773 122.808 172.876 122.53 173.084C122.251 173.288 122.041 173.575 121.899 173.945C121.757 174.311 121.686 174.739 121.686 175.227ZM130.656 181.091C130.17 181.091 129.753 181.028 129.403 180.903C129.054 180.781 128.763 180.619 128.53 180.418C128.3 180.219 128.116 180.006 127.98 179.778L128.781 179.216C128.872 179.335 128.987 179.472 129.126 179.625C129.266 179.781 129.456 179.916 129.697 180.03C129.942 180.146 130.261 180.205 130.656 180.205C131.185 180.205 131.621 180.077 131.964 179.821C132.308 179.565 132.48 179.165 132.48 178.619V177.29H132.395C132.321 177.409 132.216 177.557 132.08 177.733C131.946 177.906 131.753 178.061 131.5 178.197C131.25 178.331 130.912 178.398 130.486 178.398C129.957 178.398 129.483 178.273 129.062 178.023C128.645 177.773 128.314 177.409 128.07 176.932C127.828 176.455 127.707 175.875 127.707 175.193C127.707 174.523 127.825 173.939 128.061 173.442C128.297 172.942 128.625 172.555 129.045 172.283C129.466 172.007 129.952 171.869 130.503 171.869C130.929 171.869 131.267 171.94 131.517 172.082C131.77 172.222 131.963 172.381 132.097 172.56C132.233 172.736 132.338 172.881 132.412 172.994H132.514V171.955H133.486V178.688C133.486 179.25 133.358 179.707 133.102 180.06C132.849 180.415 132.509 180.675 132.08 180.839C131.653 181.007 131.179 181.091 130.656 181.091ZM130.622 177.494C131.026 177.494 131.366 177.402 131.645 177.217C131.923 177.033 132.135 176.767 132.28 176.42C132.425 176.074 132.497 175.659 132.497 175.176C132.497 174.705 132.426 174.288 132.284 173.928C132.142 173.567 131.932 173.284 131.653 173.08C131.375 172.875 131.031 172.773 130.622 172.773C130.196 172.773 129.841 172.881 129.557 173.097C129.276 173.312 129.064 173.602 128.922 173.966C128.783 174.33 128.713 174.733 128.713 175.176C128.713 175.631 128.784 176.033 128.926 176.382C129.071 176.729 129.284 177.001 129.565 177.2C129.849 177.396 130.202 177.494 130.622 177.494ZM140.254 178.5V179.438H134.799V178.5H140.254ZM143.322 178.619C142.822 178.619 142.372 178.52 141.971 178.321C141.571 178.122 141.25 177.849 141.008 177.503C140.767 177.156 140.635 176.761 140.612 176.318H141.635C141.674 176.713 141.853 177.04 142.172 177.298C142.493 177.554 142.876 177.682 143.322 177.682C143.68 177.682 143.998 177.598 144.277 177.43C144.558 177.263 144.778 177.033 144.937 176.74C145.099 176.445 145.18 176.111 145.18 175.739C145.18 175.358 145.096 175.018 144.929 174.72C144.764 174.419 144.537 174.182 144.247 174.009C143.957 173.835 143.626 173.747 143.254 173.744C142.987 173.741 142.713 173.783 142.431 173.868C142.15 173.95 141.919 174.057 141.737 174.188L140.748 174.068L141.277 169.773H145.811V170.71H142.163L141.856 173.284H141.907C142.086 173.142 142.311 173.024 142.581 172.93C142.85 172.837 143.132 172.79 143.424 172.79C143.958 172.79 144.434 172.918 144.852 173.173C145.272 173.426 145.602 173.773 145.841 174.213C146.082 174.653 146.203 175.156 146.203 175.722C146.203 176.278 146.078 176.776 145.828 177.213C145.581 177.648 145.24 177.991 144.805 178.244C144.37 178.494 143.876 178.619 143.322 178.619ZM154.015 172.5C153.921 172.213 153.798 171.956 153.644 171.729C153.494 171.499 153.313 171.303 153.103 171.141C152.896 170.979 152.66 170.855 152.396 170.77C152.131 170.685 151.842 170.642 151.526 170.642C151.009 170.642 150.539 170.776 150.116 171.043C149.692 171.31 149.356 171.703 149.106 172.223C148.856 172.743 148.731 173.381 148.731 174.136C148.731 174.892 148.857 175.53 149.11 176.05C149.363 176.57 149.705 176.963 150.137 177.23C150.569 177.497 151.055 177.631 151.594 177.631C152.094 177.631 152.535 177.524 152.915 177.311C153.299 177.095 153.597 176.791 153.81 176.399C154.026 176.004 154.134 175.54 154.134 175.006L154.458 175.074H151.833V174.136H155.157V175.074C155.157 175.793 155.004 176.418 154.697 176.949C154.393 177.48 153.972 177.892 153.435 178.185C152.901 178.474 152.288 178.619 151.594 178.619C150.822 178.619 150.143 178.438 149.558 178.074C148.975 177.71 148.521 177.193 148.194 176.523C147.87 175.852 147.708 175.057 147.708 174.136C147.708 173.446 147.8 172.825 147.985 172.274C148.173 171.72 148.437 171.249 148.778 170.859C149.119 170.47 149.522 170.172 149.988 169.964C150.454 169.757 150.967 169.653 151.526 169.653C151.987 169.653 152.415 169.723 152.813 169.862C153.214 169.999 153.57 170.193 153.883 170.446C154.198 170.696 154.461 170.996 154.671 171.345C154.881 171.692 155.026 172.077 155.106 172.5H154.015Z" fill="white"/>
<path d="M313.667 178.667C313.667 177.933 314.267 177.333 315 177.333C315.733 177.333 316.333 177.933 316.333 178.667C316.333 179.4 315.733 180 315 180C314.267 180 313.667 179.4 313.667 178.667ZM319.24 175.84C319.633 175.447 319.633 174.813 319.24 174.427C316.9 172.087 313.093 172.087 310.753 174.427C310.36 174.82 310.36 175.453 310.753 175.84C311.147 176.227 311.78 176.233 312.167 175.84C313.727 174.28 316.267 174.28 317.827 175.84C318.02 176.033 318.28 176.133 318.533 176.133C318.787 176.133 319.047 176.033 319.24 175.84ZM322.687 172.727C323.087 172.347 323.1 171.713 322.72 171.313C322.66 171.253 322.6 171.187 322.54 171.127C320.527 169.113 317.847 168 315 168C312.153 168 309.473 169.107 307.46 171.12C307.4 171.18 307.34 171.247 307.28 171.307C306.9 171.707 306.913 172.34 307.313 172.72C307.713 173.1 308.347 173.087 308.727 172.687L308.873 172.533C310.513 170.893 312.687 169.993 315 169.993C317.313 169.993 319.493 170.893 321.133 172.533L321.28 172.68C321.473 172.887 321.74 172.987 322 172.987C322.247 172.987 322.5 172.893 322.693 172.713L322.687 172.727Z" fill="white"/>
<path d="M345.666 171.616V170.667C345.666 168.089 343.577 166 341 166C338.422 166 336.333 168.089 336.333 170.667V171.616C335.12 172.146 334.335 173.343 334.333 174.667V178.667C334.335 180.507 335.826 181.998 337.666 182H344.333C346.173 181.998 347.664 180.507 347.666 178.667V174.667C347.665 173.343 346.88 172.146 345.666 171.616ZM341.666 177.333C341.666 177.702 341.368 178 341 178C340.631 178 340.333 177.702 340.333 177.333V176C340.333 175.632 340.631 175.333 341 175.333C341.368 175.333 341.666 175.632 341.666 176V177.333ZM344.333 171.333H337.666V170.667C337.666 168.826 339.159 167.333 341 167.333C342.841 167.333 344.333 168.826 344.333 170.667V171.333Z" fill="white"/>
<g clip-path="url(#clip1_54_94)">
<path d="M367 166C365.418 166 363.871 166.469 362.555 167.348C361.24 168.227 360.214 169.477 359.609 170.939C359.003 172.4 358.845 174.009 359.154 175.561C359.462 177.113 360.224 178.538 361.343 179.657C362.462 180.776 363.887 181.538 365.439 181.846C366.991 182.155 368.6 181.997 370.061 181.391C371.523 180.786 372.773 179.76 373.652 178.445C374.531 177.129 375 175.582 375 174C374.998 171.879 374.154 169.845 372.654 168.346C371.155 166.846 369.121 166.002 367 166ZM367 180.667C365.681 180.667 364.393 180.276 363.296 179.543C362.2 178.811 361.345 177.769 360.841 176.551C360.336 175.333 360.204 173.993 360.461 172.699C360.719 171.406 361.354 170.218 362.286 169.286C363.218 168.354 364.406 167.719 365.699 167.461C366.993 167.204 368.333 167.336 369.551 167.841C370.769 168.345 371.811 169.2 372.543 170.296C373.276 171.393 373.667 172.681 373.667 174C373.665 175.768 372.962 177.462 371.712 178.712C370.462 179.962 368.768 180.665 367 180.667Z" fill="#00A3FF"/>
<path d="M367 172.667H366.334C366.157 172.667 365.987 172.737 365.862 172.862C365.737 172.987 365.667 173.157 365.667 173.333C365.667 173.51 365.737 173.68 365.862 173.805C365.987 173.93 366.157 174 366.334 174H367V178C367 178.177 367.071 178.346 367.196 178.471C367.321 178.596 367.49 178.667 367.667 178.667C367.844 178.667 368.013 178.596 368.138 178.471C368.263 178.346 368.334 178.177 368.334 178V174C368.334 173.646 368.193 173.307 367.943 173.057C367.693 172.807 367.354 172.667 367 172.667Z" fill="#00A3FF"/>
<path d="M367 171.333C367.552 171.333 368 170.886 368 170.333C368 169.781 367.552 169.333 367 169.333C366.448 169.333 366 169.781 366 170.333C366 170.886 366.448 171.333 367 171.333Z" fill="#00A3FF"/>
</g>
<path d="M20 200H413V241C413 246.523 408.523 251 403 251H30C24.4771 251 20 246.523 20 241V200Z" fill="white" fill-opacity="0.1"/>
<path d="M59.6534 230.068C59.4432 230.068 59.2628 229.993 59.1122 229.842C58.9616 229.692 58.8864 229.511 58.8864 229.301C58.8864 229.091 58.9616 228.911 59.1122 228.76C59.2628 228.609 59.4432 228.534 59.6534 228.534C59.8636 228.534 60.044 228.609 60.1946 228.76C60.3452 228.911 60.4205 229.091 60.4205 229.301C60.4205 229.44 60.3849 229.568 60.3139 229.685C60.2457 229.801 60.1534 229.895 60.0369 229.966C59.9233 230.034 59.7955 230.068 59.6534 230.068ZM62.9581 230.068C62.7479 230.068 62.5675 229.993 62.4169 229.842C62.2663 229.692 62.1911 229.511 62.1911 229.301C62.1911 229.091 62.2663 228.911 62.4169 228.76C62.5675 228.609 62.7479 228.534 62.9581 228.534C63.1683 228.534 63.3487 228.609 63.4993 228.76C63.6499 228.911 63.7251 229.091 63.7251 229.301C63.7251 229.44 63.6896 229.568 63.6186 229.685C63.5504 229.801 63.4581 229.895 63.3416 229.966C63.228 230.034 63.1001 230.068 62.9581 230.068ZM66.2628 230.068C66.0526 230.068 65.8722 229.993 65.7216 229.842C65.571 229.692 65.4957 229.511 65.4957 229.301C65.4957 229.091 65.571 228.911 65.7216 228.76C65.8722 228.609 66.0526 228.534 66.2628 228.534C66.473 228.534 66.6534 228.609 66.804 228.76C66.9545 228.911 67.0298 229.091 67.0298 229.301C67.0298 229.44 66.9943 229.568 66.9233 229.685C66.8551 229.801 66.7628 229.895 66.6463 229.966C66.5327 230.034 66.4048 230.068 66.2628 230.068Z" fill="white"/>
<defs>
<clipPath id="clip0_54_94">
<rect width="16" height="16" fill="white" transform="translate(359 114)"/>
</clipPath>
<clipPath id="clip1_54_94">
<rect width="16" height="16" fill="white" transform="translate(359 166)"/>
</clipPath>
</defs>
</svg>
