<svg width="68" height="16" viewBox="0 0 68 16" fill="none" xmlns="http://www.w3.org/2000/svg">
<path d="M6.66667 12.6667C6.66667 11.9333 7.26667 11.3333 8 11.3333C8.73333 11.3333 9.33333 11.9333 9.33333 12.6667C9.33333 13.4 8.73333 14 8 14C7.26667 14 6.66667 13.4 6.66667 12.6667ZM12.24 9.84C12.6333 9.44667 12.6333 8.81333 12.24 8.42667C9.9 6.08667 6.09333 6.08667 3.75333 8.42667C3.36 8.82 3.36 9.45333 3.75333 9.84C4.14667 10.2267 4.78 10.2333 5.16667 9.84C6.72667 8.28 9.26667 8.28 10.8267 9.84C11.02 10.0333 11.28 10.1333 11.5333 10.1333C11.7867 10.1333 12.0467 10.0333 12.24 9.84ZM15.6867 6.72667C16.0867 6.34667 16.1 5.71333 15.72 5.31333C15.66 5.25333 15.6 5.18667 15.54 5.12667C13.5267 3.11333 10.8467 2 8 2C5.15333 2 2.47333 3.10667 0.460001 5.12C0.400001 5.18 0.340001 5.24667 0.280001 5.30667C-0.0999987 5.70667 -0.0866654 6.34 0.313335 6.72C0.713335 7.1 1.34667 7.08667 1.72667 6.68667L1.87333 6.53333C3.51333 4.89333 5.68667 3.99333 8 3.99333C10.3133 3.99333 12.4933 4.89333 14.1333 6.53333L14.28 6.68C14.4733 6.88667 14.74 6.98667 15 6.98667C15.2467 6.98667 15.5 6.89333 15.6933 6.71333L15.6867 6.72667Z" fill="white"/>
<path d="M38.6663 5.616V4.66666C38.6663 2.08934 36.577 0 33.9997 0C31.4223 0 29.333 2.08934 29.333 4.66666V5.616C28.1197 6.14553 27.3348 7.34284 27.333 8.66666V12.6667C27.3352 14.5067 28.8263 15.9978 30.6663 16H37.333C39.173 15.9978 40.6641 14.5067 40.6663 12.6667V8.66666C40.6646 7.34284 39.8796 6.14553 38.6663 5.616ZM34.6663 11.3333C34.6663 11.7015 34.3679 12 33.9997 12C33.6315 12 33.333 11.7015 33.333 11.3333V10C33.333 9.63181 33.6315 9.33334 33.9997 9.33334C34.3679 9.33334 34.6663 9.63181 34.6663 10V11.3333ZM37.333 5.33334H30.6663V4.66669C30.6663 2.82575 32.1587 1.33334 33.9997 1.33334C35.8406 1.33334 37.333 2.82572 37.333 4.66669V5.33334Z" fill="white"/>
<g clip-path="url(#clip0_54_106)">
<path d="M60 0C58.4178 0 56.871 0.469192 55.5554 1.34824C54.2398 2.22729 53.2145 3.47672 52.609 4.93853C52.0035 6.40034 51.845 8.00887 52.1537 9.56072C52.4624 11.1126 53.2243 12.538 54.3431 13.6569C55.462 14.7757 56.8874 15.5376 58.4393 15.8463C59.9911 16.155 61.5997 15.9965 63.0615 15.391C64.5233 14.7855 65.7727 13.7602 66.6518 12.4446C67.5308 11.129 68 9.58225 68 8C67.9977 5.87897 67.1541 3.84547 65.6543 2.34568C64.1545 0.845886 62.121 0.00229405 60 0ZM60 14.6667C58.6815 14.6667 57.3925 14.2757 56.2962 13.5431C55.1999 12.8106 54.3454 11.7694 53.8408 10.5512C53.3362 9.33305 53.2042 7.99261 53.4614 6.6994C53.7187 5.40619 54.3536 4.21831 55.286 3.28596C56.2183 2.35361 57.4062 1.71867 58.6994 1.46143C59.9926 1.2042 61.3331 1.33622 62.5512 1.8408C63.7694 2.34539 64.8106 3.19987 65.5431 4.2962C66.2757 5.39253 66.6667 6.68146 66.6667 8C66.6647 9.76752 65.9617 11.4621 64.7119 12.7119C63.4621 13.9617 61.7675 14.6647 60 14.6667Z" fill="#00A3FF"/>
<path d="M60.0003 6.66669H59.3337C59.1568 6.66669 58.9873 6.73693 58.8623 6.86195C58.7372 6.98697 58.667 7.15654 58.667 7.33335C58.667 7.51016 58.7372 7.67973 58.8623 7.80476C58.9873 7.92978 59.1568 8.00002 59.3337 8.00002H60.0003V12C60.0003 12.1768 60.0706 12.3464 60.1956 12.4714C60.3206 12.5964 60.4902 12.6667 60.667 12.6667C60.8438 12.6667 61.0134 12.5964 61.1384 12.4714C61.2634 12.3464 61.3337 12.1768 61.3337 12V8.00002C61.3337 7.6464 61.1932 7.30726 60.9431 7.05721C60.6931 6.80716 60.3539 6.66669 60.0003 6.66669Z" fill="#00A3FF"/>
<path d="M60 5.33331C60.5523 5.33331 61 4.8856 61 4.33331C61 3.78103 60.5523 3.33331 60 3.33331C59.4477 3.33331 59 3.78103 59 4.33331C59 4.8856 59.4477 5.33331 60 5.33331Z" fill="#00A3FF"/>
</g>
<defs>
<clipPath id="clip0_54_106">
<rect width="16" height="16" fill="white" transform="translate(52)"/>
</clipPath>
</defs>
</svg>
