<svg width="129" height="128" viewBox="0 0 129 128" fill="none" xmlns="http://www.w3.org/2000/svg">
<g clip-path="url(#clip0_38_258)">
<path d="M53.8333 101.333C53.8333 95.4667 58.6333 90.6667 64.5 90.6667C70.3667 90.6667 75.1667 95.4667 75.1667 101.333C75.1667 107.2 70.3667 112 64.5 112C58.6333 112 53.8333 107.2 53.8333 101.333ZM98.42 78.72C101.567 75.5733 101.567 70.5067 98.42 67.4133C79.7 48.6933 49.2467 48.6933 30.5267 67.4133C27.38 70.56 27.38 75.6267 30.5267 78.72C33.6733 81.8133 38.74 81.8667 41.8333 78.72C54.3133 66.24 74.6333 66.24 87.1133 78.72C88.66 80.2667 90.74 81.0667 92.7667 81.0667C94.7933 81.0667 96.8733 80.2667 98.42 78.72ZM125.993 53.8133C129.193 50.7733 129.3 45.7067 126.26 42.5067C125.78 42.0267 125.3 41.4933 124.82 41.0133C108.713 24.9067 87.2733 16 64.5 16C41.7267 16 20.2867 24.8533 4.18001 40.96C3.70001 41.44 3.22001 41.9733 2.74001 42.4533C-0.299989 45.6533 -0.193323 50.72 3.00668 53.76C6.20668 56.8 11.2733 56.6933 14.3133 53.4933L15.4867 52.2667C28.6067 39.1467 45.9933 31.9467 64.5 31.9467C83.0067 31.9467 100.447 39.1467 113.567 52.2667L114.74 53.44C116.287 55.0933 118.42 55.8933 120.5 55.8933C122.473 55.8933 124.5 55.1467 126.047 53.7067L125.993 53.8133Z" fill="white"/>
</g>
<defs>
<clipPath id="clip0_38_258">
<rect width="128" height="128" fill="white" transform="translate(0.5)"/>
</clipPath>
</defs>
</svg>
